<?xml version="1.0" ?><!DOCTYPE svg  PUBLIC '-//W3C//DTD SVG 1.1//EN'  'http://www.w3.org/Graphics/SVG/1.1/DTD/svg11.dtd'><svg height="43.3492mm" style="shape-rendering:geometricPrecision; text-rendering:geometricPrecision; image-rendering:optimizeQuality; fill-rule:evenodd; clip-rule:evenodd" version="1.1" viewBox="0 0 259 259" width="43.3492mm" xml:space="preserve" xmlns="http://www.w3.org/2000/svg" xmlns:xlink="http://www.w3.org/1999/xlink"><defs><style type="text/css">
   <![CDATA[
    .fil1 {fill:#FEFEFE}
    .fil2 {fill:#003A8C}
    .fil0 {fill:#0047AD}
   ]]>
  </style></defs><g id="Layer_x0020_1"><g id="_446890496"><rect class="fil0" height="259" rx="28" ry="28" width="259"/><path class="fil1" d="M68 135c16,0 35,-4 40,7 7,12 -1,22 -15,22 -8,0 -17,0 -26,0l1 -29zm88 -53l44 0 0 13 -44 0 0 -13zm4 50c2,-10 8,-16 18,-17 11,0 16,7 17,17l-35 0zm14 51c21,1 39,-4 41,-28l-19 0c0,0 -1,1 -1,1 -1,11 -19,11 -27,7 -6,-4 -8,-10 -8,-17l55 1 1 -2c1,-18 -4,-36 -22,-43 -5,-2 -11,-3 -17,-3 -53,1 -54,81 -3,84zm-74 -66c-3,2 -26,1 -32,1l0 -24c5,0 26,-2 34,2 7,4 6,21 -2,21zm-57 -4l0 17 0 19 0 34c18,0 60,2 72,-3 24,-11 25,-51 0,-55 27,-15 15,-45 -13,-50l-59 0 0 38z"/><path class="fil2" d="M215 155c-2,24 -20,29 -41,28 -30,-2 -42,-31 -36,-54l-13 -13c-2,3 -5,6 -10,9 25,4 24,44 0,55 -12,5 -54,3 -72,3l76 76 112 0 28 -28 0 -90 -59 -59 0 13 -44 0 7 7c4,-2 9,-2 14,-3 6,0 12,1 17,3 18,7 23,25 22,43l-1 2 -55 -1c0,7 2,13 8,17 8,4 26,4 27,-7l1 -1 19 0z"/><path class="fil2" d="M160 132l35 0c-1,-10 -6,-17 -17,-17 -10,1 -16,7 -18,17z"/><path class="fil2" d="M93 164c14,0 22,-10 15,-22 -5,-11 -24,-7 -40,-7l-1 29c9,0 18,0 26,0z"/><path class="fil2" d="M68 118c6,0 29,1 32,-1 8,0 9,-17 2,-21 -8,-4 -29,-2 -34,-2l0 24z"/></g></g></svg>