<?xml version="1.0" ?><!DOCTYPE svg  PUBLIC '-//W3C//DTD SVG 1.1//EN'  'http://www.w3.org/Graphics/SVG/1.1/DTD/svg11.dtd'><svg enable-background="new 0 0 64 64" height="64px" id="Layer_1" version="1.1" viewBox="0 0 64 64" width="64px" xml:space="preserve" xmlns="http://www.w3.org/2000/svg" xmlns:xlink="http://www.w3.org/1999/xlink"><g><g><path d="M60.932,19.775c-0.782-1.861-1.763-3.656-2.896-5.331    c-1.118-1.661-2.412-3.228-3.829-4.646c-1.422-1.421-2.985-2.71-4.649-3.833c-1.678-1.137-3.472-2.108-5.331-2.897    c-1.9-0.798-3.887-1.418-5.903-1.829c-2.067-0.424-4.195-0.642-6.322-0.642c-2.13,0-4.257,0.218-6.326,0.642    c-2.018,0.411-4.003,1.031-5.901,1.829c-1.861,0.789-3.656,1.761-5.337,2.897c-1.66,1.123-3.224,2.412-4.646,3.833    c-1.418,1.419-2.705,2.985-3.829,4.646c-1.133,1.675-2.11,3.47-2.895,5.331c-0.805,1.898-1.421,3.889-1.836,5.906    c-0.421,2.062-0.634,4.189-0.634,6.317c0,2.134,0.213,4.261,0.634,6.327c0.415,2.018,1.031,4.003,1.836,5.898    c0.784,1.859,1.762,3.663,2.895,5.338c1.124,1.662,2.411,3.221,3.829,4.646c1.423,1.417,2.986,2.703,4.646,3.829    c1.681,1.134,3.476,2.108,5.337,2.894c1.898,0.806,3.884,1.419,5.901,1.83c2.069,0.428,4.196,0.642,6.326,0.642    c2.127,0,4.255-0.214,6.322-0.642c2.017-0.411,4.003-1.024,5.903-1.83c1.859-0.785,3.653-1.76,5.331-2.894    c1.664-1.126,3.228-2.412,4.649-3.829c1.417-1.426,2.711-2.984,3.829-4.646c1.133-1.675,2.113-3.479,2.896-5.338    c0.802-1.896,1.423-3.881,1.836-5.898c0.419-2.066,0.636-4.193,0.636-6.327c0-2.128-0.217-4.255-0.636-6.317    C62.354,23.664,61.733,21.674,60.932,19.775z M32.001,5.183c6.787,0,12.986,2.533,17.712,6.694    c-0.067,0.1-3.885,5.914-14.012,9.707C31.119,13.162,26.08,6.471,25.681,5.938C27.704,5.449,29.822,5.183,32.001,5.183z     M25.575,5.961c0,0.004-0.005,0.008-0.005,0.008s-0.032,0.008-0.081,0.016C25.52,5.977,25.545,5.973,25.575,5.961z M20.556,7.748    c0.358,0.477,5.318,7.201,9.962,15.451c-12.88,3.422-24.057,3.286-24.762,3.274C7.495,18.166,13.073,11.279,20.556,7.748z     M12.052,49.921c-4.272-4.753-6.873-11.033-6.873-17.922c0-0.286,0.015-0.566,0.022-0.847c0.477,0.011,13.727,0.311,27.534-3.822    c0.769,1.504,1.503,3.035,2.177,4.562c-0.354,0.095-0.706,0.201-1.058,0.32C19.383,36.887,12.04,49.906,12.04,49.906    L12.052,49.921z M32.001,58.82c-6.333,0-12.152-2.2-16.744-5.875c-0.095-0.074-0.207-0.162-0.345-0.273    c0.138,0.111,0.25,0.199,0.345,0.273c0.157,0.122,0.259,0.196,0.259,0.196s5.14-11.211,21.047-16.753    c0.058-0.021,0.121-0.037,0.181-0.055c3.772,9.803,5.327,18.016,5.727,20.359C39.253,58.061,35.713,58.82,32.001,58.82z     M46.986,54.242c-0.273-1.618-1.701-9.49-5.221-19.153c8.659-1.385,16.159,0.989,16.714,1.171    C57.287,43.732,53.005,50.176,46.986,54.242z M40.135,30.854c-0.194-0.458-0.383-0.92-0.582-1.381    c-0.557-1.314-1.159-2.615-1.782-3.892c10.591-4.323,14.89-10.54,14.94-10.612c3.761,4.566,6.038,10.401,6.101,16.764    C58.425,31.648,49.349,29.693,40.135,30.854z" fill="#F26B95" id="Dribbble_2_"/></g><path d="M60.932,19.775c-0.782-1.861-1.763-3.656-2.896-5.331c-0.354-0.526-0.732-1.04-1.12-1.546   c-1.159,0.867-2.43,1.735-3.805,2.6c3.512,4.486,5.64,10.109,5.7,16.234c-0.387-0.084-9.463-2.039-18.677-0.879   c-0.194-0.458-0.383-0.92-0.582-1.381c-0.557-1.314-1.159-2.615-1.782-3.892c7.348-2.999,11.662-6.906,13.635-9.044   c-6.578,3.882-15.166,7.611-24.837,10.543c-6.026,1.828-11.874,3.16-17.274,4.012c5.053-0.202,14.117-0.971,23.441-3.762   c0.769,1.504,1.503,3.035,2.177,4.562c-0.354,0.095-0.706,0.201-1.058,0.32C19.383,36.887,12.04,49.906,12.04,49.906l0.012,0.015   c-4.272-4.753-6.873-11.033-6.873-17.922c0-0.116,0.006-0.229,0.01-0.344c-1.58,0.185-3.117,0.327-4.59,0.421   c0.004,2.107,0.216,4.209,0.632,6.25c0.415,2.018,1.031,4.003,1.836,5.898c0.784,1.859,1.762,3.663,2.895,5.338   c1.124,1.662,2.411,3.221,3.829,4.646c1.423,1.417,2.986,2.703,4.646,3.829c1.681,1.134,3.476,2.108,5.337,2.894   c1.898,0.806,3.884,1.419,5.901,1.83c2.069,0.428,4.196,0.642,6.326,0.642c2.127,0,4.255-0.214,6.322-0.642   c2.017-0.411,4.003-1.024,5.903-1.83c1.859-0.785,3.653-1.76,5.331-2.894c1.664-1.126,3.228-2.412,4.649-3.829   c1.417-1.426,2.711-2.984,3.829-4.646c1.133-1.675,2.113-3.479,2.896-5.338c0.802-1.896,1.423-3.881,1.836-5.898   c0.419-2.066,0.636-4.193,0.636-6.327c0-2.128-0.217-4.255-0.636-6.317C62.354,23.664,61.733,21.674,60.932,19.775z M32.001,58.82   c-6.217,0-11.932-2.129-16.482-5.684c0.049-0.106,5.214-11.232,21.044-16.748c0.058-0.021,0.121-0.037,0.181-0.055   c3.772,9.803,5.327,18.016,5.727,20.359C39.253,58.061,35.713,58.82,32.001,58.82z M46.986,54.242   c-0.273-1.618-1.701-9.49-5.221-19.153c8.659-1.385,16.159,0.989,16.714,1.171C57.287,43.732,53.005,50.176,46.986,54.242z" fill="#E64C87"/><path d="M58.233,37.574c-1.461,6.911-5.584,12.842-11.247,16.668c-0.103-0.607-0.368-2.096-0.845-4.229   c-1.441,0.924-2.949,1.748-4.513,2.469c0.437,1.955,0.706,3.422,0.841,4.211c-3.217,1.367-6.757,2.127-10.469,2.127   c-5.031,0-9.721-1.412-13.744-3.828c-4.32-0.955-8.363-2.672-11.994-5.006c1.053,1.502,2.232,2.92,3.527,4.223   c1.423,1.417,2.986,2.703,4.646,3.829c1.681,1.134,3.476,2.108,5.337,2.894c1.898,0.806,3.884,1.419,5.901,1.83   c2.069,0.428,4.196,0.642,6.326,0.642c2.127,0,4.255-0.214,6.322-0.642c2.017-0.411,4.003-1.024,5.903-1.83   c1.859-0.785,3.653-1.76,5.331-2.894c1.664-1.126,3.228-2.412,4.649-3.829c1.417-1.426,2.711-2.984,3.829-4.646   c1.133-1.675,2.113-3.479,2.896-5.338c0.802-1.896,1.423-3.881,1.836-5.898c0.419-2.066,0.636-4.193,0.636-6.327   c0-1.956-0.191-3.91-0.547-5.815C61.909,30.27,60.333,34.105,58.233,37.574z" fill="#BA3A7B"/><circle cx="27.597" cy="52.074" fill="#BA3A7B" r="1.125"/><circle cx="32.972" cy="53.699" fill="#BA3A7B" r="0.5"/><circle cx="35.972" cy="45.449" fill="#BA3A7B" r="1"/><circle cx="51.222" cy="46.699" fill="#BA3A7B" r="0.5"/><circle cx="53.597" cy="40.824" fill="#BA3A7B" r="0.375"/><circle cx="4.347" cy="60.199" fill="#BA3A7B" r="0.375"/><circle cx="5.222" cy="56.199" fill="#E64C87" r="1.5"/><circle cx="12.347" cy="38.074" fill="#E64C87" r="0.875"/><circle cx="38.472" cy="53.824" fill="#E64C87" r="0.875"/><circle cx="12.472" cy="43.949" fill="#E64C87" r="0.75"/><circle cx="26.222" cy="47.949" fill="#E64C87" r="0.75"/><circle cx="21.222" cy="52.449" fill="#E64C87" r="0.75"/><circle cx="16.722" cy="36.199" fill="#E64C87" r="0.5"/><circle cx="33.222" cy="49.449" fill="#E64C87" r="0.5"/><circle cx="9.722" cy="58.449" fill="#E64C87" r="0.5"/></g></svg>