<?xml version="1.0" encoding="utf-8"?>
<!-- Generator: Adobe Illustrator 24.3.0, SVG Export Plug-In . SVG Version: 6.00 Build 0)  -->
<svg version="1.1" id="Layer_1" xmlns="http://www.w3.org/2000/svg" xmlns:xlink="http://www.w3.org/1999/xlink" x="0px" y="0px"
	 viewBox="0 0 792 612" style="enable-background:new 0 0 792 612;" xml:space="preserve">
<style type="text/css">
	.st0{fill:#333334;stroke:#000000;stroke-width:0.9087;stroke-miterlimit:10;}
	.st1{fill:#D68119;}
	.st2{fill:none;stroke:#000000;stroke-width:0.9377;stroke-miterlimit:10;}
	.st3{fill:#CC7B16;}
	.st4{fill:#FFFFFF;}
	.st5{fill:#F7941D;}
</style>
<rect class="st0" width="792" height="612"/>
<path class="st1" d="M469.4,234.2c-1.8,1-6.2,2.1-8,3.1c-38.7,6.6-73.5,24.3-101.3,49.6c-3.3-3-6.4-6.3-9.3-9.8
	c-13.1-16-21-36.4-21-58.6c0-1.1,0-2.1,0.1-3.2c0-0.3,0-0.6,0-0.9c0-0.7,0.1-1.4,0.1-2.1c0-0.6,0.1-1.2,0.1-1.7
	c0-0.5,0.1-1.1,0.1-1.6c0-0.3,0.1-0.6,0.1-0.9c0-0.3,0.1-0.6,0.1-0.9c0-0.4,0.1-0.8,0.2-1.2c0.1-0.4,0.1-0.8,0.2-1.2
	c0.1-0.6,0.2-1.3,0.3-1.9c0.1-0.5,0.2-0.9,0.2-1.3c0.1-0.5,0.2-1,0.3-1.6c0-0.1,0-0.2,0-0.3c0.1-0.7,0.3-1.3,0.4-2
	c0-0.2,0.1-0.3,0.1-0.5l0,0c0.1-0.6,0.3-1.2,0.5-1.8c0.1-0.6,0.3-1.2,0.5-1.7c0-0.1,0-0.2,0.1-0.2c0.2-0.6,0.3-1.2,0.5-1.7
	c0.4-1.3,0.8-2.5,1.2-3.8c0.2-0.4,0.3-0.9,0.5-1.3c0.1-0.2,0.2-0.4,0.2-0.6c0.1-0.4,0.3-0.8,0.4-1.1c0.2-0.6,0.5-1.3,0.8-1.9
	c0.3-0.7,0.6-1.5,1-2.2c0.3-0.7,0.7-1.5,1-2.2c0-0.1,0.1-0.2,0.2-0.3c0.2-0.5,0.4-0.9,0.7-1.4c0.2-0.3,0.3-0.6,0.5-1
	c0.3-0.6,0.7-1.2,1-1.9c0.3-0.5,0.6-1,0.9-1.6c0.2-0.4,0.5-0.8,0.7-1.2c0.1-0.2,0.2-0.4,0.4-0.6c0.2-0.4,0.5-0.8,0.7-1.2
	c0.4-0.6,0.7-1.2,1.1-1.7c0.4-0.6,0.8-1.2,1.2-1.7c0.2-0.3,0.4-0.6,0.6-0.9c0.8-1.1,1.6-2.2,2.5-3.4c2-2.6,4.2-5.1,6.5-7.4
	c6.9-7.1,14.9-13.1,23.8-17.7c-0.4,3-0.5,6.1-0.5,9.3c0,3,0.2,6,0.5,8.9c1.1,10.5,4.2,20.4,8.9,29.5c0.4,0.7,0.8,1.5,1.2,2.2
	c0,0,0,0.1,0.1,0.1c0.3,0.6,0.7,1.2,1,1.8c0.1,0.2,0.3,0.5,0.4,0.7c0.4,0.6,0.7,1.2,1.1,1.8c0.5,0.8,1,1.6,1.6,2.4
	c0.4,0.5,0.8,1.1,1.1,1.6c0,0.1,0.1,0.1,0.2,0.2c0.5,0.7,1,1.3,1.4,2c0.5,0.7,1,1.3,1.6,2c0,0,0,0,0,0c-1.7,2.1-2.7,4.8-2.7,7.6
	c0,6.8,5.5,12.3,12.3,12.3c3.1,0,6-1.2,8.2-3.1c0,0,0,0,0,0c0.8,0.6,1.7,1.2,2.5,1.8c1.3,0.9,2.6,1.7,4,2.5c0.5,0.3,0.9,0.5,1.4,0.8
	c0.5,0.3,0.9,0.5,1.4,0.8c3.7,2.1,7.6,3.9,11.6,5.5c0.7,0.3,1.4,0.6,2.1,0.8c0.7,0.2,1.4,0.5,2.1,0.7c0.8,0.3,1.6,0.6,2.4,0.8
	c0.7,0.2,1.3,0.4,2,0.6c0,0,0.1,0,0.1,0c0.6,0.2,1.1,0.3,1.7,0.5c1.5,0.4,3,0.8,4.5,1.1c0.4,0.1,0.9,0.2,1.3,0.3
	c0.6,0.1,1.1,0.2,1.7,0.3c0.8,0.2,1.6,0.3,2.4,0.4c0.6,0.1,1.3,0.2,1.9,0.3c0.9,0.1,1.8,0.2,2.6,0.3c0.7,0.1,1.5,0.2,2.2,0.2
	c0.7,0.1,1.4,0.1,2.1,0.2c0.2,0,0.4,0,0.5,0C466.7,234.3,468.3,234.3,469.4,234.2z"/>
<path class="st2" d="M332.5,197.2c0.2-0.6,0.3-1.2,0.5-1.8C332.8,196,332.6,196.6,332.5,197.2L332.5,197.2z"/>
<path class="st3" d="M356,154.4c-2.3,2.3-4.4,4.8-6.5,7.4c-0.9,1.1-1.7,2.2-2.5,3.4c-0.2,0.3-0.4,0.6-0.6,0.9
	c-0.4,0.6-0.8,1.2-1.2,1.7c-0.4,0.6-0.8,1.1-1.1,1.7c-0.2,0.4-0.5,0.8-0.7,1.2c-0.1,0.2-0.2,0.4-0.4,0.6c-0.2,0.4-0.5,0.8-0.7,1.2
	c-0.3,0.5-0.6,1-0.9,1.6c-0.3,0.6-0.7,1.2-1,1.9c-0.2,0.3-0.3,0.6-0.5,1c-0.2,0.5-0.5,0.9-0.7,1.4c-0.1,0.1-0.1,0.2-0.2,0.3
	c-0.3,0.7-0.7,1.5-1,2.2c-0.3,0.7-0.7,1.5-1,2.2c-0.3,0.6-0.5,1.3-0.8,1.9c-0.1,0.4-0.3,0.8-0.4,1.1c-0.1,0.2-0.1,0.4-0.2,0.6
	c-0.2,0.4-0.3,0.8-0.5,1.3c-0.4,1.2-0.9,2.5-1.2,3.8c-0.2,0.6-0.3,1.2-0.5,1.7c0,0.1,0,0.1-0.1,0.2c-0.2,0.6-0.3,1.2-0.5,1.7
	c-0.2,0.6-0.3,1.2-0.5,1.8l0,0c-9.3,11.4-17.3,23.9-23.9,37.1c-3.2-9.3-4.9-19.3-4.9-29.6c0-21.4,7.3-41.1,19.5-56.8
	c8.1-10.4,18.4-19,30.2-25.1c-0.4,3-0.5,6.1-0.5,9.3C352.9,139.8,354,147.2,356,154.4z"/>
<path class="st4" d="M470,233.4c-0.5,0-0.5,0-0.9,0c-0.8,0-1.5,0-2.3,0c-1.3,0-2.7-0.1-4-0.2c-0.1,0-0.2,0-0.3,0c-0.2,0-0.3,0-0.5,0
	c-0.7,0-1.4-0.1-2-0.2c-0.7-0.1-1.4-0.1-2.1-0.2c-0.8-0.1-1.7-0.2-2.5-0.3c-0.6-0.1-1.2-0.2-1.8-0.3c-0.8-0.1-1.5-0.3-2.2-0.4
	c-0.5-0.1-1-0.2-1.6-0.3c-0.4-0.1-0.8-0.2-1.2-0.3c-1.4-0.3-2.8-0.7-4.2-1.1c-0.5-0.2-1.1-0.3-1.6-0.5c0,0-0.1,0-0.1,0
	c-0.6-0.2-1.3-0.4-1.9-0.6c-0.8-0.2-1.5-0.5-2.3-0.8c-0.7-0.2-1.3-0.5-2-0.7c-0.7-0.3-1.3-0.5-2-0.8c-3.8-1.6-7.4-3.4-10.9-5.5
	c-0.4-0.3-0.9-0.5-1.3-0.8c-0.4-0.3-0.9-0.5-1.3-0.8c-1.3-0.8-2.5-1.7-3.8-2.5c-0.8-0.6-1.6-1.2-2.4-1.8c0,0,0.8,0.6,0.8,0.6
	c-2,1.9-5,3.5-8,3.5c-6.4,0-12.1-6.6-12.1-13.4c0-2.9,0.8-4.5,2.4-6.6c0.7-0.6,0.2,0.1,0.3-1c-0.5-0.7-1.2-1.5-1.7-2.1
	c-0.5-0.6-0.9-1.3-1.4-2c-0.1-0.1-0.1-0.2-0.2-0.2c-0.4-0.5-0.7-1.1-1.1-1.6c-0.5-0.8-1-1.6-1.5-2.4c-0.4-0.6-0.7-1.2-1-1.8
	c-0.1-0.2-0.3-0.5-0.4-0.7c-0.3-0.6-0.7-1.2-1-1.8c0,0,0-0.1-0.1-0.1c-0.4-0.7-0.7-1.4-1.1-2.2l16.8,10.3l12.2,7.5l48.6,29.9
	L470,233.4z"/>
<path class="st5" d="M360.3,287c-30,27.4-51.7,63.8-60.7,104.8c-7.7-21.3-11.9-44.2-11.9-68.1c0-32.1,7.5-62.5,20.9-89.4
	c6.6-13.3,14.6-25.7,23.9-37.1c0,0.2-0.1,0.3-0.1,0.5c-0.2,0.7-0.3,1.3-0.4,2c0,0.1,0,0.2,0,0.3c-0.1,0.5-0.2,1-0.3,1.6
	c-0.1,0.5-0.2,0.9-0.2,1.3c-0.1,0.6-0.2,1.3-0.3,1.9c-0.1,0.4-0.1,0.8-0.2,1.2c-0.1,0.4-0.1,0.8-0.2,1.2c0,0.3-0.1,0.6-0.1,0.9
	c0,0.3-0.1,0.6-0.1,0.9c-0.1,0.5-0.1,1.1-0.1,1.6c-0.1,0.6-0.1,1.1-0.1,1.7c-0.1,0.7-0.1,1.4-0.1,2.1c0,0.3,0,0.6,0,0.9
	c0,1.1-0.1,2.1-0.1,3.2c0,22.3,7.9,42.7,21,58.6C353.8,280.7,356.9,284,360.3,287z"/>
<path class="st4" d="M461.6,237.4c-0.9,0.5-1.8,1.1-2.8,1.7c-0.9,0.6-1.8,1.1-2.7,1.7c-0.7,0.5-1.5,0.9-2.2,1.4
	c-2.5,1.7-5,3.4-7.4,5.1c-0.5,0.4-1,0.7-1.5,1.1c-1.3,1-2.6,2-4,3c-0.7,0.5-1.3,1-2,1.5c-2.7,2.2-5.4,4.4-8,6.7
	c-0.5,0.4-1,0.9-1.5,1.3c-0.6,0.6-1.3,1.2-1.9,1.7c-1.3,1.2-2.5,2.3-3.7,3.5c-0.6,0.6-1.2,1.2-1.8,1.8c-0.5,0.5-1,1-1.5,1.6
	c-2.5,2.5-4.9,5.1-7.3,7.8c-0.5,0.5-1,1.1-1.4,1.6c-0.2,0.2-0.4,0.5-0.6,0.8c-0.4,0.5-0.9,1-1.3,1.5c-0.6,0.7-1.1,1.3-1.7,2
	c-0.6,0.8-1.2,1.5-1.9,2.3c-0.5,0.7-1.1,1.4-1.6,2.1c-0.4,0.6-0.9,1.1-1.3,1.7c0,0,0,0,0,0c-0.5,0.7-1,1.4-1.5,2.1
	c-1.2,1.7-2.4,3.3-3.6,5c-0.4,0.6-0.8,1.2-1.2,1.8c-0.4,0.5-0.7,1.1-1.1,1.6c-0.4,0.6-0.8,1.3-1.2,1.9c-1.5,2.3-2.9,4.6-4.2,6.9
	c-0.4,0.8-0.9,1.5-1.3,2.2c-0.4,0.7-0.8,1.3-1.1,2c-0.5,0.9-1,1.8-1.5,2.7c-0.8,1.5-1.6,3-2.3,4.5c-0.4,0.8-0.8,1.6-1.2,2.3
	c-0.8,1.6-1.5,3.1-2.2,4.7c-0.7,1.6-1.4,3.2-2.1,4.8c-0.3,0.8-0.7,1.6-1,2.4c-0.3,0.8-0.7,1.6-1,2.4c-0.2,0.6-0.5,1.3-0.7,1.9
	c-0.4,0.9-0.7,1.8-1,2.8c-0.8,2.2-1.6,4.5-2.3,6.7c-0.2,0.7-0.5,1.5-0.7,2.2c-0.8,2.4-1.4,4.8-2.1,7.1c-0.3,0.9-0.5,1.9-0.8,2.8
	c-0.2,0.9-0.5,1.8-0.7,2.7c-0.6,2.3-1.1,4.6-1.6,6.9c-0.2,1.1-0.4,2.2-0.6,3.3c-0.2,0.8-0.3,1.7-0.5,2.5c-0.1,0.4-0.1,0.8-0.2,1.1
	c-0.1,0.6-0.2,1.3-0.3,1.9c-0.1,0.5-0.2,0.9-0.2,1.4c0,0.1,0,0.1,0,0.2c-0.3,1.7-0.5,3.4-0.7,5.1c0,0,0,0.1,0,0.1
	c-0.1,0.7-0.2,1.4-0.2,2.1c-0.1,0.7-0.2,1.5-0.2,2.2c-0.1,1-0.2,2.1-0.3,3.1c-0.1,1-0.2,1.9-0.2,2.9c0,0.5-0.1,1-0.1,1.5
	c0,0.7-0.1,1.4-0.1,2.1c0,0.3,0,0.6,0,0.9c0,0.8-0.1,1.6-0.1,2.5c0,0.3,0,0.6,0,0.9c0,0.7,0,1.3-0.1,2c0,1.5,0,2.9,0,4.4
	c0,29.6,6.4,57.7,17.9,82.9c-37.2-23.7-66.1-59.3-81.3-101.4c9.1-41.1,30.7-77.5,60.7-104.8C388,261.6,422.9,244,461.6,237.4z"/>
</svg>
